HIERARCHY
ROOT Hips
{
	OFFSET 0.0000 0.0000 0.0000
	CHANNELS 6 Xposition Yposition Zposition Zrotation Xrotation Yrotation
	JOINT Ab
	{
		OFFSET -0.0000 8.0846 -0.0000
		CHANNELS 3 Zrotation Xrotation Yrotation
		JOINT Chest
		{
			OFFSET -0.0000 25.7002 -0.0000
			CHANNELS 3 Zrotation Xrotation Yrotation
			JOINT Neck
			{
				OFFSET -0.0000 25.7002 0.0000
				CHANNELS 3 Zrotation Xrotation Yrotation
				JOINT Head
				{
					OFFSET -0.0000 10.7556 0.0000
					CHANNELS 3 Zrotation Xrotation Yrotation
					End Site
					{
						OFFSET -0.0000 16.6222 0.0000
					}
				}
			}
			JOINT LeftCollar
			{
				OFFSET -0.0000 25.7002 0.0000
				CHANNELS 3 Zrotation Xrotation Yrotation
				JOINT LeftShoulder
				{
					OFFSET 19.5556 -0.0000 0.0000
					CHANNELS 3 Zrotation Xrotation Yrotation
					JOINT LeftElbow
					{
						OFFSET 27.2833 0.0000 0.0000
						CHANNELS 3 Zrotation Xrotation Yrotation
						JOINT LeftWrist
						{
							OFFSET 23.7914 0.0000 0.0000
							CHANNELS 3 Zrotation Xrotation Yrotation
							End Site
							{
								OFFSET 0.0000 -14.6667 0.0000
							}
						}
					}
				}
			}
			JOINT RightCollar
			{
				OFFSET -0.0000 25.7002 0.0000
				CHANNELS 3 Zrotation Xrotation Yrotation
				JOINT RightShoulder
				{
					OFFSET -19.5556 0.0000 0.0000
					CHANNELS 3 Zrotation Xrotation Yrotation
					JOINT RightElbow
					{
						OFFSET -27.2833 0.0000 0.0000
						CHANNELS 3 Zrotation Xrotation Yrotation
						JOINT RightWrist
						{
							OFFSET -23.7914 0.0000 0.0000
							CHANNELS 3 Zrotation Xrotation Yrotation
							End Site
							{
								OFFSET -0.0000 -14.6667 0.0000
							}
						}
					}
				}
			}
		}
	}
	JOINT LeftHip
	{
		OFFSET 11.7333 0.0000 0.0000
		CHANNELS 3 Zrotation Xrotation Yrotation
		JOINT LeftKnee
		{
			OFFSET -0.0000 -39.5330 0.0000
			CHANNELS 3 Zrotation Xrotation Yrotation
			JOINT LeftAnkle
			{
				OFFSET -0.0000 -43.0504 0.0000
				CHANNELS 3 Zrotation Xrotation Yrotation
				End Site
				{
					OFFSET -0.0000 -4.8889 16.6222
				}
			}
		}
	}
	JOINT RightHip
	{
		OFFSET -11.7333 0.0000 0.0000
		CHANNELS 3 Zrotation Xrotation Yrotation
		JOINT RightKnee
		{
			OFFSET -0.0000 -39.5330 0.0000
			CHANNELS 3 Zrotation Xrotation Yrotation
			JOINT RightAnkle
			{
				OFFSET -0.0000 -43.0504 0.0000
				CHANNELS 3 Zrotation Xrotation Yrotation
				End Site
				{
					OFFSET -0.0000 -4.8889 16.6222
				}
			}
		}
	}
}
MOTION
Frames: 21
Frame Time: 0.010000
-7.5328 86.6224 146.0466 4.3657 345.2568 183.0658 4.0202 12.6583 349.2409 4.9880 6.2537 349.3904 16.3207 331.9315 12.2994 349.5975 11.2969 9.4409 338.9572 356.8543 16.7281 15.4001 38.7523 284.9848 74.5580 340.1445 334.0604 88.9065 358.6223 33.6818 16.7089 358.2461 347.2457 69.4358 33.9764 337.0434 348.9879 356.7044 33.5904 275.7403 343.7970 39.0852 4.7337 7.4850 359.7355 359.3457 16.2608 353.9436 346.4051 345.5414 23.7898 359.8905 306.4038 7.9302 13.9028 56.4782 341.6295 359.6814 340.5550 341.6133 
-7.3791 86.6919 144.4849 4.2064 345.0565 182.7699 4.1937 12.5790 349.3473 5.0490 6.3267 349.5117 16.2729 331.9568 12.4688 349.2568 11.1710 9.6657 338.7803 356.8447 16.7114 15.3684 38.8719 285.4438 74.6672 339.7738 333.4384 89.3205 359.0166 33.7481 16.0770 358.2836 347.1941 69.5088 33.5096 336.3007 349.4191 356.8557 34.1431 276.0849 343.4964 39.2459 4.6036 8.0018 359.2948 359.1061 16.0588 354.6429 345.2824 347.7835 24.4568 359.2153 306.0581 7.3299 15.2450 57.1647 341.2759 359.4783 341.0865 341.6353 
-7.1887 86.7120 142.9283 4.1171 344.9321 182.4294 4.4392 12.5434 349.4128 5.0508 6.4625 349.5972 16.1083 331.9687 12.6041 349.0144 11.0258 9.8587 338.7513 356.8372 16.8864 15.6507 39.2371 285.3764 74.7525 339.4543 333.1027 89.6180 359.2489 33.8728 15.4203 358.3109 346.8569 68.8691 33.3491 336.3112 350.3165 357.1901 34.8480 276.7790 343.0520 40.0049 4.4517 8.1559 359.2907 359.0202 16.6776 355.0574 344.7474 349.8655 24.8480 358.3862 305.3464 6.5406 16.4440 57.4914 340.7264 359.1274 341.3277 341.3648 
-6.9921 86.6861 141.4029 3.9981 344.7654 182.0258 4.6118 12.6383 349.6261 4.9851 6.3916 349.8444 16.3226 331.9919 12.8437 348.4842 11.0826 10.0616 338.9402 356.8579 16.9867 15.4722 39.9173 285.3410 74.5743 339.1044 332.3794 90.1517 359.9222 34.3599 14.8791 358.3317 346.6524 69.0531 33.7729 336.2552 350.6044 357.1731 35.3333 276.7860 342.8445 40.8007 4.2227 7.6854 359.2091 358.6803 18.1554 355.2371 345.1945 351.4025 25.7547 357.2608 304.4685 5.3410 16.6110 57.8278 341.7374 359.0450 341.4789 340.9243 
-6.7903 86.6296 139.8848 3.7639 344.5258 181.5779 4.6290 12.7049 349.9027 4.9807 6.2769 350.1325 16.4307 332.0843 12.9941 348.0292 11.0096 10.2133 339.0713 356.8191 17.3918 16.2432 40.3967 284.6129 74.3779 338.9727 332.4055 89.8303 359.3100 34.6611 14.3237 358.3670 346.4608 69.5014 34.2806 336.8770 350.5535 357.0683 35.1273 276.7874 342.3925 42.1540 4.1762 7.0807 359.4435 358.2912 20.3459 355.3365 344.3732 352.2437 25.9586 356.9574 305.1153 4.9269 16.9950 57.6789 341.8951 359.1813 340.8168 340.5897 
-6.5559 86.5276 138.3158 3.5805 344.4305 181.1142 4.6814 12.7620 350.1341 4.9068 6.4904 350.3666 16.4054 332.0702 13.1587 347.9974 10.7453 10.3915 339.2132 356.7815 17.7275 16.2593 41.3257 284.6137 73.9015 338.7908 331.7474 90.0765 359.4704 35.3467 14.0352 358.3965 346.5639 69.9268 34.7130 337.1271 350.2314 356.8539 35.3825 276.6399 342.1185 42.1670 4.3563 6.5348 359.3506 357.2074 22.7969 355.7459 343.6092 351.9103 25.0220 356.5779 305.3832 4.3087 17.0120 57.2927 342.0598 359.4267 340.2604 340.5291 
-6.3221 86.3530 136.8708 3.4865 344.5456 180.8256 4.8761 13.0176 350.2582 4.8256 6.5883 350.5249 16.4169 332.1040 13.3096 347.7808 10.4374 10.5218 339.2239 356.7144 18.1331 16.4083 42.1194 284.4290 73.5272 338.6918 331.4112 90.0440 358.9402 35.6743 13.9677 358.4010 346.8160 70.0445 34.8587 337.5204 349.9142 356.6795 35.7607 275.7848 342.0169 41.4696 4.5219 5.8647 359.3784 356.3383 25.3946 356.0197 344.2557 351.7399 24.2120 356.3419 305.8265 3.7646 16.7846 56.8679 342.6544 358.9919 339.7275 340.4739 
-6.1012 86.1220 135.6690 3.4350 344.6653 180.7379 5.0918 13.2078 350.3153 4.8710 6.5990 350.6126 16.3949 332.1549 13.4419 347.5519 10.1134 10.6365 339.1203 356.6111 18.5521 16.7408 42.6727 284.1928 73.3158 338.6544 331.2733 89.9961 358.5708 35.8750 13.8795 358.4062 347.0982 70.5274 35.0627 337.8811 349.0146 356.2407 36.0756 275.1740 341.9227 40.0284 4.6717 5.1801 359.9848 355.9487 28.0029 355.7059 344.8275 351.4270 23.8140 356.3389 306.1552 3.1531 16.4748 56.2508 343.0583 359.8898 339.0395 340.4026 
-5.8521 85.8422 134.4381 3.4115 344.7619 180.6791 5.3016 13.3852 350.3689 4.9795 6.6101 350.6931 16.3280 332.2160 13.5543 347.3515 9.6968 10.7357 339.1597 356.5586 19.0269 16.6012 43.4518 284.2386 72.8779 338.5550 330.6979 90.2747 358.5509 35.9028 13.7860 358.4383 347.3316 71.0564 35.6097 338.4527 347.8986 355.7591 36.2187 274.0425 341.8164 37.9401 4.9717 4.2175 359.5907 354.8164 31.0648 355.9156 344.6676 350.6367 24.1082 356.6566 306.8494 2.6747 15.8388 55.4706 343.5766 0.2615 338.5953 340.6434 
-5.6075 85.5270 133.1885 3.3726 344.9176 180.5712 5.4388 13.6643 350.4619 5.1410 6.6788 350.8042 16.5185 332.1733 13.7995 346.9205 9.3197 10.9169 339.1274 356.4579 19.5185 16.1526 44.1968 284.5622 72.2880 338.4275 330.0258 90.5140 358.4629 35.5959 13.9690 358.4523 347.5858 71.3822 35.8901 339.1329 346.5955 355.2104 36.6543 272.6675 342.1335 36.1584 5.2554 3.0711 359.4186 353.5139 34.4322 356.1434 344.4634 350.1032 24.4452 357.2249 308.0611 2.3174 15.0760 54.5207 344.4863 0.5410 338.0157 340.3627 
-5.3261 85.2077 131.9489 3.4022 345.0055 180.3626 5.7010 13.9155 350.5464 5.2127 6.7330 350.9265 16.4157 332.2142 13.9979 346.9288 8.7171 11.0894 339.0451 356.3429 19.9394 15.4478 44.9860 285.1256 71.4988 338.2713 329.1809 90.7511 358.4512 35.0466 14.6239 358.3400 347.3610 70.7539 36.5218 340.2655 345.3739 354.7149 37.2624 271.9271 342.0003 34.7979 5.5423 1.6212 359.2263 352.0742 38.2776 356.2167 344.5887 349.7406 25.1366 357.8377 308.9701 1.9011 14.0283 53.6737 345.3123 0.8879 337.5516 340.3425 
-4.9890 84.8947 130.8044 3.6146 344.7696 180.2833 5.9554 13.9411 350.6091 5.5512 6.7962 350.9953 16.0692 332.0271 14.1048 347.2541 8.1661 11.1984 338.8662 356.2019 20.5075 14.6657 46.0050 285.8563 70.4206 338.1096 328.2187 91.6371 358.5461 34.5020 15.4110 358.1542 346.5864 69.2627 37.6817 342.4078 344.4277 354.3765 37.5667 270.6316 341.6722 33.4911 5.8105 0.5243 359.5467 351.0571 41.7507 356.6757 345.4086 350.3882 25.1215 358.4484 309.8894 1.2546 12.7805 52.9514 346.6628 1.4975 337.0356 340.3222 
-4.7087 84.5640 129.4690 3.7509 345.1066 179.9229 6.1280 14.3350 350.8845 5.7726 7.1733 351.2812 16.1913 331.8728 14.3161 347.0356 7.5746 11.3020 338.8062 356.1131 20.8432 13.0144 47.1467 287.2592 69.1748 337.9672 327.2003 92.4156 358.5754 33.7619 15.3968 358.2557 347.5275 70.6280 37.4196 342.7618 342.2607 353.3363 38.0248 269.6413 341.3568 32.5892 6.2320 359.5195 0.9850 350.9382 44.9184 356.5332 347.1055 352.0195 24.7893 359.3380 311.0736 0.6687 11.4098 52.2934 348.2962 2.0835 336.5476 340.4000 
-4.4203 84.2277 128.1859 3.7851 345.2150 179.4094 6.0788 14.6800 351.3645 5.9498 7.3990 351.7554 16.7807 331.8604 14.7312 346.3368 7.0818 11.5122 338.7361 356.0524 21.0458 11.3828 48.4097 288.6219 67.9838 337.8528 326.4433 92.8713 358.5200 32.7903 15.9651 358.2112 347.8144 70.3032 37.6927 344.1715 340.6432 352.7131 38.3393 268.0159 340.9220 31.0172 7.2068 356.5156 359.1392 346.1035 50.6186 0.7317 348.7517 352.0057 25.4470 0.2934 312.3520 0.1505 9.9809 51.7809 350.1056 2.8228 336.2826 340.7605 
-4.1567 83.8608 126.9320 3.9107 345.3205 178.9585 6.2803 15.0446 351.6562 6.0232 7.5858 352.0767 16.6392 331.6398 14.7564 346.4171 6.4899 11.4649 338.7520 355.9644 21.7551 12.5683 50.2132 287.1954 67.9142 338.2416 328.0767 93.2481 357.7710 32.5579 16.6468 358.1799 348.3107 69.7195 37.9463 345.6637 338.9838 352.0337 38.8341 265.7622 340.5156 28.8051 8.0029 354.9196 358.7882 342.4380 54.5295 4.3105 348.5225 352.3463 25.8325 1.2868 313.3465 359.8251 8.8335 51.9545 352.1728 0.4119 336.8853 340.8911 
-3.8889 83.4969 125.6585 4.0654 345.4195 178.3780 6.5038 15.4328 351.9511 6.0438 7.7410 352.4113 16.3862 331.4805 14.7870 346.5730 5.9244 11.4890 338.7857 355.9277 21.7659 9.9034 51.8102 289.3082 66.5624 338.7479 327.5310 94.2303 358.1023 32.7026 17.5194 358.1237 348.6582 68.1788 38.2880 347.9655 337.9929 351.6697 39.5971 262.8442 340.6725 27.1922 8.7248 353.2142 358.6194 338.5583 58.5860 7.7110 349.5397 353.3229 26.4425 2.1936 313.7053 359.9164 8.3916 53.3378 353.7819 358.2055 336.1738 340.2242 
-3.6277 83.1236 124.3860 4.3173 345.3214 177.6090 6.5641 15.7775 352.5580 6.1416 7.7545 353.0499 16.7320 331.4729 15.0236 346.0234 5.4212 11.5651 338.8378 355.9348 21.6740 6.3357 53.2829 292.1834 64.7657 339.1726 326.7168 94.9985 358.1769 32.5471 18.4851 358.0684 348.9953 66.7386 38.5303 350.3870 336.7136 351.0336 40.2606 260.7060 340.2791 25.7708 9.4305 351.0885 358.5161 333.3850 62.6621 12.8279 351.0090 354.6244 27.0521 2.9410 313.7407 0.0912 8.1219 55.0497 354.7074 359.7572 334.5077 340.3141 
-3.3790 82.7623 123.0120 4.6777 345.3499 176.7788 6.8134 15.9994 353.1045 6.1529 7.9979 353.6310 16.4492 331.7754 14.9661 345.9819 4.4796 11.5156 338.8353 355.9054 21.8218 3.6600 54.7840 294.1833 62.9159 339.7182 326.5769 95.7766 358.4311 32.4668 19.4009 358.0420 349.4067 65.2531 38.7447 352.9782 335.2994 350.2900 41.0453 258.8176 339.7616 24.8098 10.0262 348.8205 358.5748 327.5870 66.7128 17.6948 354.3472 355.6814 28.2243 3.8255 313.8647 0.0159 7.3247 56.5313 355.8289 359.3884 334.1922 340.5203 
-3.1414 82.4290 121.5479 5.0950 345.3454 175.8688 7.1338 16.1378 353.5581 6.1505 8.4481 354.1104 15.7551 331.9273 14.8668 346.2962 3.5352 11.5158 338.9131 355.8982 21.9150 359.7412 56.1347 297.3390 60.7758 340.3958 326.2794 96.7401 358.3405 31.9549 20.3878 358.0334 350.0065 63.2914 38.8066 355.7801 334.1879 349.6281 42.3516 256.8154 339.3602 24.5095 10.5878 346.4468 358.5484 319.8816 70.1261 24.8785 355.2560 355.3002 28.5834 5.0130 314.3041 359.9337 6.1974 57.6081 357.9388 359.0056 333.4094 340.2748 
-2.9053 82.1417 120.0628 5.4978 345.3160 174.9427 7.5735 16.3518 353.8427 5.9665 8.7825 354.4693 15.0920 331.9911 14.9028 346.6462 2.7801 11.6372 339.0193 355.9376 21.7658 354.2731 57.1197 302.1835 58.1810 341.0134 325.3232 97.9926 358.3606 30.8071 21.4157 358.0722 350.9139 61.2252 38.8855 358.6252 332.8986 348.7145 43.8507 255.2441 338.9610 24.5332 11.0680 344.0191 358.3492 309.1676 72.7884 35.0076 354.9895 353.9354 28.7627 6.3041 315.1548 0.1606 5.2405 58.2086 0.0036 358.4509 332.3775 340.0949 
-2.6731 81.8748 118.5438 5.8563 345.2192 174.0998 7.8393 16.4609 354.2981 5.8642 9.1242 354.9653 14.7733 332.0014 15.0122 346.6405 2.2823 11.7327 339.0943 355.9792 21.4892 348.3064 58.0946 307.7087 55.7824 341.4684 324.4746 98.6332 358.8757 29.6513 22.4393 358.1546 351.8765 59.1850 39.4717 1.5867 331.1663 347.5097 44.9884 254.1458 338.4934 24.7038 11.3520 341.7452 358.3771 298.4247 74.7064 45.7230 355.6118 353.9670 28.3078 7.6470 316.1440 0.1474 3.6390 58.7383 2.4010 357.8408 331.2974 339.5401 
